<?xml version="1.0" ?><svg height="512" id="Layer_1" version="1.1" viewBox="0 0 512 512" width="512" xml:space="preserve" xmlns="http://www.w3.org/2000/svg" xmlns:cc="http://creativecommons.org/ns#" xmlns:dc="http://purl.org/dc/elements/1.1/" xmlns:inkscape="http://www.inkscape.org/namespaces/inkscape" xmlns:rdf="http://www.w3.org/1999/02/22-rdf-syntax-ns#" xmlns:sodipodi="http://sodipodi.sourceforge.net/DTD/sodipodi-0.dtd" xmlns:svg="http://www.w3.org/2000/svg"><defs id="defs12"/><g id="g5042"><rect height="512" id="rect2987" style="fill:#21759b;fill-opacity:1;fill-rule:nonzero;stroke:none" width="512" x="0" y="5.6843419e-014"/><path d="m 78.58815,158.47006 c 33.3529,-62.216179 100.2626,-102.907061 177.4057,-102.907061 49.946,0 95.5646,21.28182 130.6187,51.316481 -10.016,-1.93861 -20.948,0.23888 -31.9624,6.5386 -25.7746,14.77997 -34.1968,56.61932 -0.781,77.63776 20.879,13.04043 28.3042,45.69666 27.5984,65.64779 -0.6846,19.97564 -48.5234,111.72268 -48.5234,111.72268 l -46.5695,-159.91074 c 0,0 -1.6063,-11.22127 -1.6063,-14.45534 0,-4.07783 1.346,-9.07288 3.8695,-11.92567 1.7318,-1.8942 4.3748,-5.88627 7.5094,-5.88627 h 22.0628 v -17.7767 h -119.9962 v 17.7767 h 3.7211 c 3.9261,0 7.7666,5.28755 11.4799,9.08361 4.3811,4.52188 9.8953,21.54519 16.5793,39.20399 l 17.449,57.4799 -37.6099,86.8944 -41.2575,-173.67241 c 0,0 1.2282,-11.90269 3.7134,-13.92858 1.6247,-1.38428 4.1283,-5.06091 7.0117,-5.06091 h 1.1332 v -17.7767 H 78.58815 z m 23.5237,30.18012 c 0,0 -9.7069,-12.40341 -20.0033,-12.40341 h -10.4479 c -10.0958,22.22203 -15.6605,52.06986 -15.6605,79.42017 0,82.28217 50.4543,152.85611 122.3467,182.9367 l -76.235,-249.95346 z m 325.9986,-31.76194 c 3.796,18.02937 3.009,39.90992 -4.3993,63.96796 -19.3418,62.60667 -67.2128,175.23432 -85.7398,218.13485 69.5633,-31.05295 118.0285,-100.39573 118.0285,-181.01339 0,-36.91779 -10.203,-71.48352 -27.8894,-101.08942 z m -168.071,169.05405 -51.1403,124.90092 c 15.1061,3.61844 30.8676,5.59379 47.0947,5.59379 16.8044,0 33.108,-2.07948 48.6919,-5.9567 l -44.6463,-124.53801 z" id="WordPress__x28_alt_x29__3_" style="fill:#ffffff;fill-rule:evenodd"/></g></svg>